<svg width="856" height="900" viewBox="0 0 856 900" fill="none" xmlns="http://www.w3.org/2000/svg">
<line x1="58" y1="268.5" x2="85" y2="268.5" stroke="#728E89" stroke-width="5"/>
<line x1="60" y1="342.5" x2="88" y2="342.5" stroke="#728E89" stroke-width="5"/>
<line x1="481" y1="335.5" x2="513" y2="335.5" stroke="#728E89" stroke-width="5"/>
<line x1="604" y1="204.5" x2="640" y2="204.5" stroke="#728E89" stroke-width="5"/>
<line x1="546" y1="264.5" x2="578" y2="264.5" stroke="#728E89" stroke-width="5"/>
<line x1="545" y1="335.5" x2="577" y2="335.5" stroke="#728E89" stroke-width="5"/>
<line x1="613" y1="335.5" x2="650" y2="335.5" stroke="#728E89" stroke-width="5"/>
<line x1="673" y1="335.5" x2="704" y2="335.5" stroke="#728E89" stroke-width="5"/>
<line x1="762" y1="162.5" x2="797" y2="162.5" stroke="#728E89" stroke-width="5"/>
<line x1="543" y1="163.5" x2="575" y2="163.5" stroke="#728E89" stroke-width="5"/>
<line x1="607" y1="163.5" x2="642" y2="163.5" stroke="#728E89" stroke-width="5"/>
<line x1="774" y1="201.5" x2="806" y2="201.5" stroke="#728E89" stroke-width="5"/>
<line x1="129" y1="342.5" x2="173" y2="342.5" stroke="#728E89" stroke-width="5"/>
<line x1="136" y1="782.5" x2="168" y2="782.5" stroke="#728E89" stroke-width="5"/>
<line x1="260" y1="781.5" x2="295" y2="781.5" stroke="#728E89" stroke-width="5"/>
<line x1="360" y1="781.5" x2="394" y2="781.5" stroke="#728E89" stroke-width="5"/>
<line x1="437" y1="781.5" x2="469" y2="781.5" stroke="#728E89" stroke-width="5"/>
<line x1="442" y1="640.5" x2="481" y2="640.5" stroke="#728E89" stroke-width="5"/>
<line x1="515" y1="640.5" x2="547" y2="640.5" stroke="#728E89" stroke-width="5"/>
<line x1="592" y1="640.5" x2="631" y2="640.5" stroke="#728E89" stroke-width="5"/>
<line x1="595" y1="737.5" x2="630" y2="737.5" stroke="#728E89" stroke-width="5"/>
<line x1="355" y1="587.5" x2="389" y2="587.5" stroke="#728E89" stroke-width="5"/>
<line x1="307" y1="548.5" x2="351" y2="548.5" stroke="#728E89" stroke-width="5"/>
<line x1="517" y1="781.5" x2="553" y2="781.5" stroke="#728E89" stroke-width="5"/>
<line x1="599" y1="781.5" x2="631" y2="781.5" stroke="#728E89" stroke-width="5"/>
<line x1="676" y1="781.5" x2="717" y2="781.5" stroke="#728E89" stroke-width="5"/>
<line x1="746" y1="781.5" x2="778" y2="781.5" stroke="#728E89" stroke-width="5"/>
<line x1="723" y1="640.5" x2="755" y2="640.5" stroke="#728E89" stroke-width="5"/>
<path d="M773 640H813" stroke="#728E89" stroke-width="5"/>
<line x1="775" y1="454.5" x2="807" y2="454.5" stroke="#728E89" stroke-width="5"/>
<line x1="180.5" y1="274" x2="180.5" y2="242" stroke="#728E89" stroke-width="5"/>
<line x1="401.5" y1="479" x2="401.5" y2="441" stroke="#728E89" stroke-width="5"/>
<line x1="401.5" y1="585" x2="401.5" y2="553" stroke="#728E89" stroke-width="5"/>
<path d="M711 560V523" stroke="#728E89" stroke-width="5"/>
<line x1="711.5" y1="375" x2="711.5" y2="343" stroke="#728E89" stroke-width="5"/>
<line x1="771.5" y1="437" x2="771.5" y2="405" stroke="#728E89" stroke-width="5"/>
<line x1="768.5" y1="318" x2="768.5" y2="285" stroke="#728E89" stroke-width="5"/>
<line x1="768.5" y1="249" x2="768.5" y2="217" stroke="#728E89" stroke-width="5"/>
<line x1="832.5" y1="572" x2="832.5" y2="518" stroke="#728E89" stroke-width="5"/>
<path d="M256 481V441" stroke="#728E89" stroke-width="5"/>
<line x1="127.5" y1="714" x2="127.5" y2="676" stroke="#728E89" stroke-width="5"/>
<line x1="343.5" y1="713" x2="343.5" y2="673" stroke="#728E89" stroke-width="5"/>
<line x1="343.5" y1="773.017" x2="343.5" y2="744" stroke="#728E89" stroke-width="5"/>
<line x1="666.5" y1="706" x2="666.5" y2="674" stroke="#728E89" stroke-width="5"/>
<line x1="127.5" y1="835" x2="127.5" y2="801" stroke="#728E89" stroke-width="5"/>
<line x1="217.5" y1="327" x2="217.5" y2="310" stroke="#728E89" stroke-width="5"/>
<line x1="435.5" y1="323" x2="435.5" y2="306" stroke="#728E89" stroke-width="5"/>
<line x1="471.5" y1="270" x2="471.5" y2="238" stroke="#728E89" stroke-width="5"/>
<line x1="521.5" y1="116" x2="521.5" y2="84" stroke="#728E89" stroke-width="5"/>
<line x1="471.5" y1="172" x2="471.5" y2="140" stroke="#728E89" stroke-width="5"/>
<line x1="471.5" y1="68" x2="471.5" y2="36" stroke="#728E89" stroke-width="5"/>
<line x1="595.5" y1="116" x2="595.5" y2="84" stroke="#728E89" stroke-width="5"/>
<line x1="408.857" y1="120.952" x2="392.836" y2="93.2517" stroke="#728E89" stroke-width="5"/>
<path d="M42 860.015V268.985M127.5 675.007V648.993M128 860.016V839M218 860V846.5M218 793V781M336 860V781M416 860V781M496 860V781M577 860V781M658 860V781M42 860H817V625M633.998 737.5H774.002M634 640H720M345.998 737.247H519M782 781H817M634 781H674M556 781H596M551.995 737.5H592.005M713 454H775M651.108 462.437L660.437 464.892M641 462H649M629.06 470.006L640.009 461.94M625.265 480.996L627.424 471.735M627.232 493.909L625.338 482.768M634.934 501.262L628.262 495.066M645.892 504.563L636.563 502.108M660.492 501.139L648.139 504.508M715 379H771V404M715 264H762M706 201H774M517 204H602M579 163H602M800 163H808M800 201H808M544 163H521V120M458 124H518M471 180H430V163H411M296 149H360M410 124H423M643 204H671M653 335H672M525 264H544M472 204H480M518 335H541M579 335H611M402 335H480M579 264H662M381.998 69.5H471.003M643 163H758M472 31H808M705.996 336.317H768.001M550 640H590M485 640H517M351 588H344V671M392 588H399M405 640H441M349.995 661.75H399.001M354 548H401V484M257 548H304M298 781H357M174 781H256M45 649H127M174 342H256V438M91 342H127M181.5 295H217V305M471 294.5H436V301.5M128 212H180M88 268H124M181 186H223V167M42 268H57M223 166H244M42 342H57M474 781H514M397 781H437M107 781H133M42 781H63M720 781H742M759 640L774.002 640.058M818 625H832M808 463H832M804 454H808M811 640H815M738 860V781M256 548V484M180 342V278M471 335V274M471 235V176M471 136V70M523.964 335.036L523.036 205.036M711 340V202M711 520V375M807.989 461.057V31M666 335V205M595 159V120M521 80.0089V34M595 80.0089V34M296 174V150M217 339V330M436 333V325.5M244.095 165.907L244.907 122.905M245.971 122.004L269.004 91.0288M270.34 89.057L296.057 71.6601M297.776 71.0215L319.021 66.2241M321.175 66.1816L339.182 66.8247M341.063 67.362L359.362 71.9366M361.708 72.7639L378.764 81.2918M379.045 81.3961L390.396 90.9548M409.5 163.005V122.995M376.84 79.1047L381.955 69.1598M471 39V31M768 215V202M768 336V322M771 454V441M360 174V150M768 281V251M832.919 515.083L832.083 464.081M832.919 625.083L832.083 574.081M666 671V640M666 737V705M711.943 640.058L711.058 563.057M180 239V186M128 342V213M401 438V335M514 737V641M556 737V641M766.5 737.5V687.5V640M400.5 737.001V587.998M344 742V716M344 781V775M128 798V716" stroke="#CFE0E2" stroke-width="10" stroke-linecap="round" stroke-linejoin="round"/>
<circle cx="156.5" cy="483.5" r="22.5" stroke="#EAEAEA" stroke-opacity="0.5" stroke-width="10"/>
<path d="M788.75 761V50.9406M689.995 617.009V181.97M739.5 690.043V488.999M613.437 815.001V617.987M696.5 815.005V760.995M761.875 815V760.999M452.375 815.007V760.992M463 690.014V617.986M370 614V571M151 571L142 522L155 483L191 469L233 460H419M529 513.078V460M377.25 815.001V760.994M274 761V815H90M89.873 815V695.997M151.374 815.003V572M232.749 571V364.999M153 365V259H496M273.5 523.107V122M381 523.108V122M419 617V359H788M495.986 150.995L496 395L474 409L530 461H580V513H530M561 359.008V235.992M557 182V100M499 99.0001L490 49.0001H444M327 760V196M789 760.877H152M151 696H90M151 621H72L72 250L110.958 172M72 571H478L529.176 513M690 616.979H418.997M738 690H614M787 547H657L635 567M788 182H496M788 141H619M788 51.0001H619V236H561M381 523H274M381 385H274M232 365H72M380 196H275M450 315H204M787 609H740M787 489H740M788 421H745M690 484H653M788.006 302.5H742.994M788 233H743M496 151H447L426 96.0001M327 103L274 122M425 96.0001L381 121.611M380.59 122.083L327.64 102.942M443.949 49.1414L376 37.0001M375.953 36.5708H300.996M301 37.0001L227 62.0001M226.958 62.0001L161 113M160.958 113L111 172M561 305H631V359L648 376L634 410L581 461M619.019 99.5001H498.981M370 695H327M479 571L535 582V815M634.837 567.199L581.163 512.802" stroke="black" stroke-opacity="0.55" stroke-width="5" stroke-linecap="round"/>
</svg>
