<svg width="19" height="10" viewBox="0 0 19 10" fill="none" xmlns="http://www.w3.org/2000/svg">
<path d="M10.0614 3.33333C9.35318 1.39167 7.43591 0 5.18182 0C2.32318 0 0 2.24167 0 5C0 7.75833 2.32318 10 5.18182 10C7.43591 10 9.35318 8.60833 10.0614 6.66667H13.8182V10H17.2727V6.66667H19V3.33333H10.0614ZM5.18182 6.66667C4.23182 6.66667 3.45455 5.91667 3.45455 5C3.45455 4.08333 4.23182 3.33333 5.18182 3.33333C6.13182 3.33333 6.90909 4.08333 6.90909 5C6.90909 5.91667 6.13182 6.66667 5.18182 6.66667Z" fill="#FFA800"/>
</svg>
