<svg width="856" height="900" viewBox="0 0 856 900" fill="none" xmlns="http://www.w3.org/2000/svg">
<path d="M670.5 684.25H669.75V682.75C669.75 680.68 668.07 679 666 679C663.93 679 662.25 680.68 662.25 682.75V684.25H661.5C660.675 684.25 660 684.925 660 685.75V693.25C660 694.075 660.675 694.75 661.5 694.75H670.5C671.325 694.75 672 694.075 672 693.25V685.75C672 684.925 671.325 684.25 670.5 684.25ZM666 691C665.175 691 664.5 690.325 664.5 689.5C664.5 688.675 665.175 688 666 688C666.825 688 667.5 688.675 667.5 689.5C667.5 690.325 666.825 691 666 691ZM668.325 684.25H663.675V682.75C663.675 681.467 664.717 680.425 666 680.425C667.283 680.425 668.325 681.467 668.325 682.75V684.25Z" fill="white"/>
<path d="M618.5 734.25H617.75V732.75C617.75 730.68 616.07 729 614 729C611.93 729 610.25 730.68 610.25 732.75V734.25H609.5C608.675 734.25 608 734.925 608 735.75V743.25C608 744.075 608.675 744.75 609.5 744.75H618.5C619.325 744.75 620 744.075 620 743.25V735.75C620 734.925 619.325 734.25 618.5 734.25ZM614 741C613.175 741 612.5 740.325 612.5 739.5C612.5 738.675 613.175 738 614 738C614.825 738 615.5 738.675 615.5 739.5C615.5 740.325 614.825 741 614 741ZM616.325 734.25H611.675V732.75C611.675 731.467 612.717 730.425 614 730.425C615.283 730.425 616.325 731.467 616.325 732.75V734.25Z" fill="white"/>
<path d="M773.5 229.25H772.75V227.75C772.75 225.68 771.07 224 769 224C766.93 224 765.25 225.68 765.25 227.75V229.25H764.5C763.675 229.25 763 229.925 763 230.75V238.25C763 239.075 763.675 239.75 764.5 239.75H773.5C774.325 239.75 775 239.075 775 238.25V230.75C775 229.925 774.325 229.25 773.5 229.25ZM769 236C768.175 236 767.5 235.325 767.5 234.5C767.5 233.675 768.175 233 769 233C769.825 233 770.5 233.675 770.5 234.5C770.5 235.325 769.825 236 769 236ZM771.325 229.25H766.675V227.75C766.675 226.467 767.717 225.425 769 225.425C770.283 225.425 771.325 226.467 771.325 227.75V229.25Z" fill="white"/>
<path d="M624.5 200.25H623.75V198.75C623.75 196.68 622.07 195 620 195C617.93 195 616.25 196.68 616.25 198.75V200.25H615.5C614.675 200.25 614 200.925 614 201.75V209.25C614 210.075 614.675 210.75 615.5 210.75H624.5C625.325 210.75 626 210.075 626 209.25V201.75C626 200.925 625.325 200.25 624.5 200.25ZM620 207C619.175 207 618.5 206.325 618.5 205.5C618.5 204.675 619.175 204 620 204C620.825 204 621.5 204.675 621.5 205.5C621.5 206.325 620.825 207 620 207ZM622.325 200.25H617.675V198.75C617.675 197.467 618.717 196.425 620 196.425C621.283 196.425 622.325 197.467 622.325 198.75V200.25Z" fill="white"/>
<path d="M566.5 260.25H565.75V258.75C565.75 256.68 564.07 255 562 255C559.93 255 558.25 256.68 558.25 258.75V260.25H557.5C556.675 260.25 556 260.925 556 261.75V269.25C556 270.075 556.675 270.75 557.5 270.75H566.5C567.325 270.75 568 270.075 568 269.25V261.75C568 260.925 567.325 260.25 566.5 260.25ZM562 267C561.175 267 560.5 266.325 560.5 265.5C560.5 264.675 561.175 264 562 264C562.825 264 563.5 264.675 563.5 265.5C563.5 266.325 562.825 267 562 267ZM564.325 260.25H559.675V258.75C559.675 257.467 560.717 256.425 562 256.425C563.283 256.425 564.325 257.467 564.325 258.75V260.25Z" fill="white"/>
<path d="M475.5 50.25H474.75V48.75C474.75 46.68 473.07 45 471 45C468.93 45 467.25 46.68 467.25 48.75V50.25H466.5C465.675 50.25 465 50.925 465 51.75V59.25C465 60.075 465.675 60.75 466.5 60.75H475.5C476.325 60.75 477 60.075 477 59.25V51.75C477 50.925 476.325 50.25 475.5 50.25ZM471 57C470.175 57 469.5 56.325 469.5 55.5C469.5 54.675 470.175 54 471 54C471.825 54 472.5 54.675 472.5 55.5C472.5 56.325 471.825 57 471 57ZM473.325 50.25H468.675V48.75C468.675 47.4675 469.717 46.425 471 46.425C472.283 46.425 473.325 47.4675 473.325 48.75V50.25Z" fill="white"/>
<path d="M525.5 98.25H524.75V96.75C524.75 94.68 523.07 93 521 93C518.93 93 517.25 94.68 517.25 96.75V98.25H516.5C515.675 98.25 515 98.925 515 99.75V107.25C515 108.075 515.675 108.75 516.5 108.75H525.5C526.325 108.75 527 108.075 527 107.25V99.75C527 98.925 526.325 98.25 525.5 98.25ZM521 105C520.175 105 519.5 104.325 519.5 103.5C519.5 102.675 520.175 102 521 102C521.825 102 522.5 102.675 522.5 103.5C522.5 104.325 521.825 105 521 105ZM523.325 98.25H518.675V96.75C518.675 95.4675 519.717 94.425 521 94.425C522.283 94.425 523.325 95.4675 523.325 96.75V98.25Z" fill="white"/>
<path d="M76.5 264.25H75.75V262.75C75.75 260.68 74.07 259 72 259C69.93 259 68.25 260.68 68.25 262.75V264.25H67.5C66.675 264.25 66 264.925 66 265.75V273.25C66 274.075 66.675 274.75 67.5 274.75H76.5C77.325 274.75 78 274.075 78 273.25V265.75C78 264.925 77.325 264.25 76.5 264.25ZM72 271C71.175 271 70.5 270.325 70.5 269.5C70.5 268.675 71.175 268 72 268C72.825 268 73.5 268.675 73.5 269.5C73.5 270.325 72.825 271 72 271ZM74.325 264.25H69.675V262.75C69.675 261.467 70.7175 260.425 72 260.425C73.2825 260.425 74.325 261.467 74.325 262.75V264.25Z" fill="white"/>
<path d="M77.5 337.25H76.75V335.75C76.75 333.68 75.07 332 73 332C70.93 332 69.25 333.68 69.25 335.75V337.25H68.5C67.675 337.25 67 337.925 67 338.75V346.25C67 347.075 67.675 347.75 68.5 347.75H77.5C78.325 347.75 79 347.075 79 346.25V338.75C79 337.925 78.325 337.25 77.5 337.25ZM73 344C72.175 344 71.5 343.325 71.5 342.5C71.5 341.675 72.175 341 73 341C73.825 341 74.5 341.675 74.5 342.5C74.5 343.325 73.825 344 73 344ZM75.325 337.25H70.675V335.75C70.675 334.467 71.7175 333.425 73 333.425C74.2825 333.425 75.325 334.467 75.325 335.75V337.25Z" fill="white"/>
<path d="M618.5 635.25H617.75V633.75C617.75 631.68 616.07 630 614 630C611.93 630 610.25 631.68 610.25 633.75V635.25H609.5C608.675 635.25 608 635.925 608 636.75V644.25C608 645.075 608.675 645.75 609.5 645.75H618.5C619.325 645.75 620 645.075 620 644.25V636.75C620 635.925 619.325 635.25 618.5 635.25ZM614 642C613.175 642 612.5 641.325 612.5 640.5C612.5 639.675 613.175 639 614 639C614.825 639 615.5 639.675 615.5 640.5C615.5 641.325 614.825 642 614 642ZM616.325 635.25H611.675V633.75C611.675 632.467 612.717 631.425 614 631.425C615.283 631.425 616.325 632.467 616.325 633.75V635.25Z" fill="white"/>
</svg>
