<svg width="32" height="22" viewBox="0 0 32 22" fill="none" xmlns="http://www.w3.org/2000/svg">
<ellipse cx="15.3351" cy="10.5155" rx="9.20103" ry="7.8866" fill="#64C0C0"/>
<path d="M15.5833 0C8.5 0 2.45083 4.40583 0 10.625C2.45083 16.8442 8.5 21.25 15.5833 21.25C22.6667 21.25 28.7158 16.8442 31.1667 10.625C28.7158 4.40583 22.6667 0 15.5833 0ZM15.5833 17.7083C11.6733 17.7083 8.5 14.535 8.5 10.625C8.5 6.715 11.6733 3.54167 15.5833 3.54167C19.4933 3.54167 22.6667 6.715 22.6667 10.625C22.6667 14.535 19.4933 17.7083 15.5833 17.7083ZM15.5833 6.375C13.2317 6.375 11.3333 8.27333 11.3333 10.625C11.3333 12.9767 13.2317 14.875 15.5833 14.875C17.935 14.875 19.8333 12.9767 19.8333 10.625C19.8333 8.27333 17.935 6.375 15.5833 6.375Z" fill="#C110C5"/>
</svg>
