<svg width="27" height="31" viewBox="0 0 27 31" fill="none" xmlns="http://www.w3.org/2000/svg">
<ellipse cx="13" cy="13.5" rx="13" ry="12.5" fill="#3DA4AB"/>
<ellipse cx="20.5" cy="22.5" rx="6.5" ry="8.5" fill="#3DA4AB"/>
<path d="M20.3757 27.3325C19.9536 27.3325 19.5607 27.2452 19.2696 27.1142C18.2362 26.5757 17.5085 25.8335 16.7808 23.6503C16.0386 21.3799 14.6414 20.3175 13.3024 19.2841C12.1526 18.3963 10.9592 17.4794 9.92587 15.602C9.1545 14.2048 8.73243 12.6766 8.73243 11.3231C8.73243 7.24792 11.9343 4.04603 16.0095 4.04603C20.0846 4.04603 23.2865 7.24792 23.2865 11.3231H26.1973C26.1973 5.60331 21.7292 1.13522 16.0095 1.13522C10.2897 1.13522 5.82162 5.60331 5.82162 11.3231C5.82162 13.1569 6.37468 15.1799 7.37891 16.9991C8.70333 19.4006 10.2606 20.6085 11.5268 21.5837C12.7057 22.486 13.5498 23.141 14.0156 24.5673C14.8888 27.2161 16.0095 28.7006 17.9888 29.7339C18.7311 30.0687 19.5461 30.2433 20.3757 30.2433C23.5921 30.2433 26.1973 27.6382 26.1973 24.4217H23.2865C23.2865 26.0227 21.9766 27.3325 20.3757 27.3325ZM6.75308 2.06668L4.68641 0C1.79015 2.89626 0 6.89862 0 11.3231C0 15.7475 1.79015 19.7499 4.68641 22.6461L6.73853 20.594C4.38077 18.2217 2.91081 14.947 2.91081 11.3231C2.91081 7.6991 4.38077 4.42443 6.75308 2.06668ZM12.3709 11.3231C12.3709 13.3315 14.001 14.9616 16.0095 14.9616C18.0179 14.9616 19.648 13.3315 19.648 11.3231C19.648 9.3146 18.0179 7.68454 16.0095 7.68454C14.001 7.68454 12.3709 9.3146 12.3709 11.3231Z" fill="#CE006F"/>
</svg>
