<svg width="1440" height="900" viewBox="0 0 1440 900" fill="none" xmlns="http://www.w3.org/2000/svg">
<rect width="1440" height="900" fill="#3DA4AB"/>
<path d="M106.159 500.832C92.2686 500.832 78.6973 499.315 65.4452 496.282C52.3528 493.088 41.5756 488.857 33.1134 483.588L51.315 442.395C59.2982 447.025 68.2393 450.778 78.1385 453.651C88.0376 456.366 97.5375 457.723 106.638 457.723C114.462 457.723 120.05 457.004 123.403 455.567C126.756 453.971 128.432 451.656 128.432 448.622C128.432 445.109 126.197 442.475 121.727 440.719C117.416 438.962 110.231 437.046 100.172 434.971C87.2393 432.257 76.462 429.383 67.8402 426.349C59.2184 423.156 51.7142 418.047 45.3277 411.021C38.9411 403.837 35.7479 394.177 35.7479 382.043C35.7479 371.505 38.7016 361.925 44.6092 353.303C50.5167 344.681 59.2982 337.896 70.9536 332.946C82.7687 327.997 97.0585 325.522 113.823 325.522C125.319 325.522 136.575 326.799 147.592 329.354C158.768 331.749 168.588 335.341 177.05 340.131L160.046 381.085C143.6 372.782 128.033 368.631 113.344 368.631C98.8148 368.631 91.5502 372.143 91.5502 379.169C91.5502 382.521 93.7056 385.076 98.0165 386.832C102.327 388.429 109.432 390.185 119.332 392.101C132.105 394.496 142.882 397.29 151.663 400.484C160.445 403.517 168.029 408.547 174.415 415.572C180.962 422.597 184.235 432.177 184.235 444.311C184.235 454.849 181.281 464.429 175.373 473.051C169.466 481.513 160.604 488.298 148.789 493.408C137.134 498.357 122.924 500.832 106.159 500.832ZM295.893 492.45C287.751 497.08 276.654 499.395 262.604 499.395C244.242 499.395 230.112 495.004 220.213 486.223C210.314 477.282 205.364 463.95 205.364 446.227V412.698H187.402V373.181H205.364V336.538H259.49V373.181H286.314V412.698H259.49V445.748C259.49 449.74 260.528 452.853 262.604 455.088C264.679 457.324 267.394 458.441 270.747 458.441C275.377 458.441 279.448 457.244 282.961 454.849L295.893 492.45ZM361.027 380.127C370.606 369.11 384.737 363.601 403.417 363.601V411.5C399.106 410.862 395.115 410.542 391.443 410.542C372.922 410.542 363.661 419.963 363.661 438.803V497H309.535V365.996H361.027V380.127ZM418.758 365.996H472.884V497H418.758V365.996ZM445.821 355.459C436.081 355.459 428.178 352.904 422.111 347.795C416.203 342.526 413.25 335.9 413.25 327.917C413.25 319.934 416.203 313.387 422.111 308.278C428.178 303.009 436.081 300.375 445.821 300.375C455.72 300.375 463.623 302.85 469.531 307.799C475.438 312.749 478.392 319.135 478.392 326.959C478.392 335.261 475.438 342.127 469.531 347.555C463.623 352.824 455.72 355.459 445.821 355.459ZM567.286 499.395C552.437 499.395 539.105 496.521 527.29 490.773C515.635 485.025 506.454 476.962 499.748 466.584C493.202 456.206 489.929 444.471 489.929 431.378C489.929 418.286 493.202 406.631 499.748 396.412C506.454 386.034 515.635 377.971 527.29 372.223C539.105 366.475 552.437 363.601 567.286 363.601C583.252 363.601 596.903 367.034 608.24 373.9C619.576 380.765 627.399 390.265 631.71 402.4L589.798 422.996C584.689 411.5 577.105 405.752 567.046 405.752C560.66 405.752 555.311 407.988 551 412.458C546.849 416.929 544.773 423.236 544.773 431.378C544.773 439.681 546.849 446.067 551 450.538C555.311 455.009 560.66 457.244 567.046 457.244C577.105 457.244 584.689 451.496 589.798 440L631.71 460.597C627.399 472.731 619.576 482.231 608.24 489.097C596.903 495.962 583.252 499.395 567.286 499.395ZM743.075 492.45C734.932 497.08 723.836 499.395 709.785 499.395C691.424 499.395 677.294 495.004 667.395 486.223C657.496 477.282 652.546 463.95 652.546 446.227V412.698H634.584V373.181H652.546V336.538H706.672V373.181H733.495V412.698H706.672V445.748C706.672 449.74 707.71 452.853 709.785 455.088C711.861 457.324 714.575 458.441 717.928 458.441C722.558 458.441 726.63 457.244 730.142 454.849L743.075 492.45ZM756.717 319.295H810.843V497H756.717V319.295ZM980.686 365.996L926.799 499.634C919.934 516.718 911.392 528.693 901.174 535.559C890.955 542.424 878.421 545.857 863.573 545.857C856.228 545.857 848.804 544.739 841.3 542.504C833.955 540.428 828.128 537.634 823.817 534.122L841.779 497C844.493 499.076 847.527 500.752 850.88 502.029C854.392 503.307 857.745 503.945 860.938 503.945C866.846 503.945 871.316 502.189 874.35 498.676L819.266 365.996H874.829L901.892 436.168L929.434 365.996H980.686ZM177.768 593.345C187.667 597.017 195.331 602.366 200.76 609.391C206.188 616.416 208.903 624.878 208.903 634.778C208.903 649.467 202.835 660.882 190.701 669.025C178.567 677.008 161.004 681 138.012 681H43.6512V513.354H133.222C155.575 513.354 172.42 517.345 183.756 525.328C195.251 533.312 200.999 543.929 200.999 557.181C200.999 565.005 199.003 572.03 195.012 578.257C191.18 584.484 185.432 589.513 177.768 593.345ZM99.214 552.87V577.778H125.558C137.852 577.778 144 573.627 144 565.324C144 557.022 137.852 552.87 125.558 552.87H99.214ZM133.222 641.483C145.676 641.483 151.903 637.093 151.903 628.311C151.903 619.53 145.676 615.139 133.222 615.139H99.214V641.483H133.222ZM366.595 615.378C366.595 616.177 366.355 620.408 365.876 628.072H274.868C276.784 633.021 279.978 636.853 284.448 639.567C288.919 642.122 294.507 643.399 301.213 643.399C306.961 643.399 311.751 642.681 315.583 641.244C319.574 639.807 323.885 637.332 328.515 633.82L356.776 662.319C344.003 676.37 324.923 683.395 299.536 683.395C283.73 683.395 269.839 680.521 257.864 674.773C245.89 668.866 236.629 660.723 230.083 650.345C223.537 639.967 220.264 628.311 220.264 615.378C220.264 602.286 223.457 590.631 229.843 580.412C236.39 570.034 245.251 561.971 256.427 556.223C267.763 550.475 280.457 547.601 294.507 547.601C307.759 547.601 319.814 550.236 330.671 555.505C341.687 560.774 350.389 568.517 356.776 578.736C363.322 588.954 366.595 601.168 366.595 615.378ZM294.986 584.484C289.398 584.484 284.768 586 281.095 589.034C277.423 592.068 275.028 596.379 273.91 601.967H316.062C314.944 596.538 312.549 592.307 308.877 589.273C305.204 586.08 300.574 584.484 294.986 584.484ZM480.192 676.45C472.049 681.08 460.953 683.395 446.902 683.395C428.541 683.395 414.411 679.004 404.512 670.223C394.613 661.282 389.663 647.95 389.663 630.227V596.698H371.701V557.181H389.663V520.538H443.789V557.181H470.612V596.698H443.789V629.748C443.789 633.74 444.827 636.853 446.902 639.088C448.978 641.324 451.692 642.441 455.045 642.441C459.675 642.441 463.747 641.244 467.259 638.849L480.192 676.45ZM588.012 676.45C579.869 681.08 568.772 683.395 554.722 683.395C536.361 683.395 522.23 679.004 512.331 670.223C502.432 661.282 497.483 647.95 497.483 630.227V596.698H479.52V557.181H497.483V520.538H551.608V557.181H578.432V596.698H551.608V629.748C551.608 633.74 552.646 636.853 554.722 639.088C556.797 641.324 559.512 642.441 562.865 642.441C567.495 642.441 571.566 641.244 575.079 638.849L588.012 676.45ZM737.531 615.378C737.531 616.177 737.292 620.408 736.813 628.072H645.805C647.721 633.021 650.914 636.853 655.384 639.567C659.855 642.122 665.443 643.399 672.149 643.399C677.897 643.399 682.687 642.681 686.519 641.244C690.51 639.807 694.821 637.332 699.452 633.82L727.712 662.319C714.939 676.37 695.859 683.395 670.473 683.395C654.666 683.395 640.775 680.521 628.801 674.773C616.826 668.866 607.565 660.723 601.019 650.345C594.473 639.967 591.2 628.311 591.2 615.378C591.2 602.286 594.393 590.631 600.78 580.412C607.326 570.034 616.187 561.971 627.364 556.223C638.7 550.475 651.393 547.601 665.443 547.601C678.695 547.601 690.75 550.236 701.607 555.505C712.624 560.774 721.325 568.517 727.712 578.736C734.258 588.954 737.531 601.168 737.531 615.378ZM665.922 584.484C660.334 584.484 655.704 586 652.032 589.034C648.359 592.068 645.964 596.379 644.847 601.967H686.998C685.88 596.538 683.485 592.307 679.813 589.273C676.141 586.08 671.51 584.484 665.922 584.484ZM806.103 564.127C815.683 553.11 829.813 547.601 848.494 547.601V595.5C844.183 594.862 840.192 594.542 836.519 594.542C817.998 594.542 808.738 603.963 808.738 622.803V681H754.612V549.996H806.103V564.127ZM80.0544 740.181H30.958V696.354H185.672V740.181H136.575V864H80.0544V740.181ZM289.683 730.601C305.809 730.601 318.742 735.471 328.482 745.211C338.381 754.95 343.33 769.639 343.33 789.278V864H289.204V798.618C289.204 783.61 283.856 776.105 273.158 776.105C267.091 776.105 262.142 778.261 258.31 782.572C254.637 786.723 252.801 793.349 252.801 802.45V864H198.675V686.295H252.801V743.534C262.86 734.912 275.154 730.601 289.683 730.601ZM425.513 730.601C448.504 730.601 466.067 735.79 478.201 746.169C490.336 756.387 496.403 772.194 496.403 793.589V864H446.109V846.756C439.882 859.849 427.508 866.395 408.987 866.395C398.609 866.395 389.748 864.639 382.403 861.126C375.219 857.454 369.71 852.584 365.878 846.517C362.206 840.29 360.37 833.345 360.37 825.681C360.37 812.748 365.32 802.929 375.219 796.223C385.118 789.517 400.126 786.164 420.244 786.164H442.038C440.281 775.946 432.059 770.837 417.37 770.837C411.462 770.837 405.475 771.795 399.408 773.71C393.34 775.467 388.151 777.942 383.84 781.135L366.597 745.45C374.101 740.82 383.122 737.227 393.66 734.673C404.357 731.959 414.975 730.601 425.513 730.601ZM425.273 833.824C429.105 833.824 432.538 832.786 435.571 830.71C438.605 828.635 440.84 825.521 442.277 821.37V812.269H428.865C417.849 812.269 412.34 815.941 412.34 823.286C412.34 826.319 413.458 828.874 415.693 830.95C418.088 832.866 421.281 833.824 425.273 833.824ZM610.803 730.601C626.929 730.601 639.862 735.471 649.601 745.211C659.5 754.95 664.45 769.639 664.45 789.278V864H610.324V798.618C610.324 783.61 604.975 776.105 594.278 776.105C588.211 776.105 583.261 778.261 579.429 782.572C575.757 786.723 573.921 793.349 573.921 802.45V864H519.795V732.996H571.286V745.929C576.396 740.82 582.303 736.988 589.009 734.433C595.715 731.879 602.979 730.601 610.803 730.601ZM926.685 696.354V864H880.223L816.518 787.841V864H761.434V696.354H807.896L871.602 772.513V696.354H926.685ZM1095.46 732.996V864H1043.97V851.546C1039.18 856.496 1033.59 860.248 1027.2 862.803C1020.82 865.197 1014.03 866.395 1006.85 866.395C990.242 866.395 976.91 861.366 966.851 851.307C956.792 841.088 951.763 825.761 951.763 805.324V732.996H1005.89V795.983C1005.89 804.925 1007.33 811.311 1010.2 815.143C1013.07 818.975 1017.3 820.891 1022.89 820.891C1028.16 820.891 1032.55 818.815 1036.07 814.664C1039.58 810.353 1041.33 803.647 1041.33 794.547V732.996H1095.46ZM1210.48 730.601C1226.6 730.601 1239.53 735.471 1249.27 745.211C1259.17 754.95 1264.12 769.639 1264.12 789.278V864H1210V798.618C1210 783.61 1204.65 776.105 1193.95 776.105C1187.88 776.105 1182.93 778.261 1179.1 782.572C1175.43 786.723 1173.59 793.349 1173.59 802.45V864H1119.47V732.996H1170.96V745.929C1176.07 740.82 1181.98 736.988 1188.68 734.433C1195.39 731.879 1202.65 730.601 1210.48 730.601ZM1338.88 866.395C1327.7 866.395 1316.69 865.197 1305.83 862.803C1294.97 860.408 1286.19 857.294 1279.49 853.462L1294.33 817.778C1300.4 821.45 1307.59 824.324 1315.89 826.399C1324.19 828.475 1332.25 829.513 1340.08 829.513C1346.3 829.513 1350.62 829.034 1353.01 828.076C1355.56 826.958 1356.84 825.362 1356.84 823.286C1356.84 821.21 1355.25 819.773 1352.05 818.975C1349.02 818.177 1343.99 817.378 1336.96 816.58C1326.27 815.303 1317.17 813.706 1309.66 811.79C1302.16 809.715 1295.53 805.803 1289.78 800.055C1284.2 794.307 1281.4 786.084 1281.4 775.387C1281.4 766.925 1283.96 759.341 1289.07 752.635C1294.17 745.929 1301.76 740.58 1311.82 736.589C1322.04 732.597 1334.25 730.601 1348.46 730.601C1358.36 730.601 1368.02 731.559 1377.44 733.475C1387.02 735.232 1395.16 737.866 1401.87 741.379L1387.02 777.063C1375.52 770.677 1362.91 767.484 1349.18 767.484C1337.36 767.484 1331.46 769.559 1331.46 773.71C1331.46 775.786 1333.05 777.303 1336.25 778.261C1339.44 779.059 1344.47 779.857 1351.33 780.656C1362.03 781.933 1371.05 783.61 1378.4 785.685C1385.9 787.761 1392.45 791.673 1398.04 797.42C1403.78 803.168 1406.66 811.391 1406.66 822.088C1406.66 830.231 1404.1 837.656 1398.99 844.361C1393.88 851.067 1386.22 856.416 1376 860.408C1365.78 864.399 1353.41 866.395 1338.88 866.395Z" fill="black" fill-opacity="0.05"/>
</svg>
